Coordinates
version=1
nRows=36
nColumns=30
inDegrees=yes

Units are S.I. units (second, meters, Newtons, ...)
Angles are in degrees.

endheader
time	floatyaw	floatroll	floatpitch	floatx	floaty	floatz	pro_sup_l	deviation_l	flexion_l	cmc_flexion_l	cmc_abduction_l	mp_flexion_l	ip_flexion_l	2mcp_flexion_l	2mcp_abduction_l	2pm_flexion_l	2md_flexion_l	3mcp_flexion_l	3mcp_abduction_l	3pm_flexion_l	3md_flexion_l	4mcp_flexion_l	4mcp_abduction_l	4pm_flexion_l	4md_flexion_l	5mcp_flexion_l	5mcp_abduction_l	5pm_flexion_l	5md_flexion_l
-0.495000	-160.147433	-5.066637	-73.570646	0.076497	-0.180765	-0.017151	98.906111	3.482666	1.809156	15.999914	10.939082	-25.886284	-42.927801	27.962424	6.637542	43.475315	29.346533	23.597305	3.885994	42.776512	27.787766	11.674538	-4.193748	50.845319	34.236669	-0.740364	-7.645028	59.572560	41.014007
-0.485000	-160.147433	-5.066637	-73.570646	0.076499	-0.180751	-0.017196	98.902672	3.488316	1.803848	15.931175	11.016309	-25.925829	-42.965005	27.977171	6.629453	43.521093	29.366253	23.623030	3.886392	42.774232	27.777132	11.713685	-4.194531	50.835816	34.235868	-0.725964	-7.647986	59.580164	41.032856
-0.475000	-160.147433	-5.066637	-73.570646	0.076495	-0.180734	-0.017252	98.912654	3.507586	1.792243	15.872208	11.105252	-25.976657	-43.018323	28.000402	6.620678	43.561143	29.380313	23.640402	3.886622	42.789408	27.776053	11.748196	-4.195620	50.840931	34.243486	-0.710554	-7.646443	59.595162	41.054885
-0.465000	-160.147433	-5.066637	-73.570646	0.076488	-0.180707	-0.017324	98.947312	3.544653	1.776216	15.831290	11.184944	-26.028330	-43.076306	28.032375	6.610831	43.579180	29.380219	23.644434	3.887100	42.813274	27.780926	11.771034	-4.194796	50.854815	34.255191	-0.698669	-7.641090	59.613824	41.075615
-0.455000	-160.147433	-5.066637	-73.570646	0.076482	-0.180664	-0.017418	99.016664	3.600164	1.758160	15.811429	11.237078	-26.070856	-43.123743	28.069373	6.600842	43.568251	29.363857	23.632859	3.888996	42.834742	27.787156	11.777955	-4.190306	50.870971	34.266298	-0.693561	-7.635635	59.633984	41.093168
-0.445000	-160.147433	-5.066637	-73.570646	0.076476	-0.180598	-0.017544	99.126930	3.670985	1.741365	15.808366	11.253146	-26.098000	-43.147532	28.104731	6.592919	43.533385	29.336145	23.606327	3.893762	42.846006	27.791562	11.767829	-4.181649	50.885968	34.273994	-0.695901	-7.635770	59.656597	41.108913
-0.435000	-160.147433	-5.066637	-73.570646	0.076467	-0.180501	-0.017705	99.279536	3.751715	1.729554	15.812188	11.238595	-26.108193	-43.142185	28.132324	6.589655	43.488273	29.305797	23.567414	3.902464	42.847430	27.794207	11.742696	-4.169930	50.901027	34.278252	-0.702746	-7.646989	59.686042	41.126245
-0.425000	-160.147433	-5.066637	-73.570646	0.076448	-0.180370	-0.017908	99.472106	3.837512	1.724939	15.811916	11.211412	-26.103139	-43.112290	28.150012	6.592853	43.449106	29.280708	23.519443	3.915259	42.848698	27.798479	11.708194	-4.157682	50.920500	34.280958	-0.707429	-7.672204	59.729038	41.148136
-0.415000	-160.147433	-5.066637	-73.570646	0.076411	-0.180199	-0.018159	99.701189	3.926907	1.725900	15.800849	11.194912	-26.085645	-43.070669	28.159626	6.602847	43.429593	29.265166	23.465540	3.931119	42.864951	27.809238	11.673558	-4.148165	50.948074	34.283979	-0.701032	-7.709941	59.791342	41.174391
-0.405000	-160.147433	-5.066637	-73.570646	0.076348	-0.179987	-0.018468	99.966100	4.023148	1.726584	15.780462	11.207560	-26.058435	-43.033250	28.162323	6.618597	43.439000	29.260326	23.407510	3.947828	42.909585	27.830111	11.649507	-4.144326	50.983264	34.287675	-0.675474	-7.753595	59.872405	41.199722
-0.395000	-160.147433	-5.066637	-73.570646	0.076251	-0.179733	-0.018850	100.272459	4.133166	1.720161	15.761302	11.254814	-26.024692	-43.013419	28.152323	6.638160	43.482176	29.266752	23.344442	3.962197	42.987443	27.861554	11.643738	-4.147846	51.020744	34.290927	-0.627160	-7.792082	59.960585	41.213890
-0.385000	-160.147433	-5.066637	-73.570646	0.076113	-0.179429	-0.019318	100.633092	4.264347	1.704776	15.760063	11.327566	-25.989348	-43.018552	28.114689	6.658928	43.559503	29.286264	23.272287	3.970549	43.091807	27.900598	11.656559	-4.158634	51.052898	34.292320	-0.559342	-7.812190	60.032821	41.204540
-0.375000	-160.147433	-5.066637	-73.570646	0.075927	-0.179061	-0.019885	101.064381	4.420815	1.688617	15.793360	11.408326	-25.959301	-43.049778	28.031026	6.677503	43.666061	29.321207	23.186275	3.969484	43.206416	27.941912	11.680566	-4.174910	51.073229	34.291076	-0.481511	-7.802588	60.061164	41.162172
-0.365000	-160.147433	-5.066637	-73.570646	0.075685	-0.178606	-0.020569	101.578139	4.602333	1.689902	15.870346	11.481647	-25.941478	-43.103779	27.891463	6.689725	43.791402	29.371631	23.086468	3.956809	43.311114	27.979132	11.706279	-4.193609	51.077612	34.286684	-0.405418	-7.758672	60.024890	41.085385
-0.355000	-160.147433	-5.066637	-73.570646	0.075367	-0.178028	-0.021391	102.171628	4.808315	1.729879	15.986829	11.542710	-25.939302	-43.174079	27.706342	6.691490	43.921783	29.432856	22.983997	3.932434	43.388445	28.005846	11.731523	-4.210819	51.062641	34.277693	-0.338999	-7.686343	59.922683	40.983801
-0.345000	-160.147433	-5.066637	-73.570646	0.074944	-0.177288	-0.022386	102.819787	5.046318	1.820715	16.122664	11.599215	-25.949608	-43.250276	27.510182	6.680298	44.045066	29.495815	22.903709	3.899027	43.428897	28.016603	11.769190	-4.222224	51.023490	34.261237	-0.280764	-7.602153	59.777787	40.876553
-0.335000	-160.147433	-5.066637	-73.570646	0.074370	-0.176350	-0.023592	103.473624	5.340438	1.953383	16.243229	11.665729	-25.962390	-43.316318	27.354110	6.656832	44.155842	29.550477	22.879846	3.862296	43.433416	28.008506	11.848087	-4.223784	50.954406	34.234270	-0.217947	-7.528288	59.632269	40.786480
-0.325000	-160.147433	-5.066637	-73.570646	0.073590	-0.175188	-0.025043	104.066798	5.733550	2.091687	16.305638	11.753677	-25.964380	-43.350769	27.288743	6.625638	44.256838	29.590098	22.944984	3.830656	43.412348	27.982940	12.004992	-4.212742	50.851982	34.195697	-0.130733	-7.483698	59.532609	40.732705
-0.315000	-160.147433	-5.066637	-73.570646	0.072542	-0.173781	-0.026766	104.529342	6.279890	2.176355	16.269289	11.862504	-25.944817	-43.330722	27.344734	6.594072	44.353812	29.612917	23.116949	3.813687	43.380273	27.945781	12.271014	-4.188414	50.717178	34.147309	-0.001202	-7.475681	59.512269	40.724609
-0.305000	-160.147433	-5.066637	-73.570646	0.071164	-0.172110	-0.028776	104.804329	7.029587	2.138297	16.107510	11.977376	-25.900062	-43.238180	27.520316	6.569379	44.445052	29.619433	23.391220	3.818926	43.347102	27.904487	12.659370	-4.151838	50.551059	34.092021	0.178844	-7.496875	59.576266	40.758703
-0.295000	-160.147433	-5.066637	-73.570646	0.069399	-0.170146	-0.031079	104.862029	8.011435	1.915197	15.815054	12.076585	-25.834553	-43.066260	27.782681	6.554993	44.511087	29.606558	23.744583	3.847660	43.307706	27.862159	13.162141	-4.104034	50.343345	34.030012	0.407767	-7.530059	59.691455	40.818516
-0.285000	-160.147433	-5.066637	-73.570646	0.067194	-0.167843	-0.033672	104.707767	9.222203	1.463268	15.408081	12.148479	-25.757957	-42.823272	28.083146	6.548180	44.512277	29.562764	24.148804	3.892094	43.235414	27.811607	13.758907	-4.044357	50.060626	33.955532	0.683371	-7.558369	59.786320	40.877367
-0.275000	-160.147433	-5.066637	-73.570646	0.064505	-0.165135	-0.036545	104.383673	10.629342	0.757846	14.918026	12.213754	-25.679805	-42.533843	28.377816	6.540714	44.399849	29.469051	24.584519	3.936594	43.087093	27.734928	14.431643	-3.971272	49.646772	33.857976	1.015725	-7.574812	59.764119	40.903852
-0.265000	-160.147433	-5.066637	-73.570646	0.061286	-0.161946	-0.039685	103.967159	12.188125	-0.217659	14.384165	12.344390	-25.602721	-42.236200	28.640772	6.522349	44.139470	29.308105	25.043008	3.963397	42.824335	27.612893	15.173399	-3.886064	49.044845	33.728960	1.433310	-7.585250	59.530601	40.869887
-0.255000	-160.147433	-5.066637	-73.570646	0.057485	-0.158201	-0.043086	103.566789	13.865115	-1.486985	13.849484	12.666132	-25.514993	-41.973822	28.860690	6.484952	43.737777	29.078766	25.511462	3.959944	42.444429	27.441830	15.980164	-3.796725	48.236077	33.573014	1.974393	-7.603069	59.031351	40.760784
-0.245000	-160.147433	-5.066637	-73.570646	0.053043	-0.153847	-0.046748	103.311602	15.652622	-3.087982	13.361180	13.332064	-25.384257	-41.779824	29.023219	6.424610	43.256479	28.807517	25.951139	3.923731	42.002670	27.247679	16.827495	-3.717933	47.275615	33.415463	2.664030	-7.637706	58.285164	40.584677
-0.235000	-160.147433	-5.066637	-73.570646	0.047909	-0.148887	-0.050667	103.330449	17.561778	-5.061717	12.973113	14.467570	-25.155870	-41.656237	29.091183	6.340010	42.801596	28.547812	26.284999	3.862155	41.606287	27.084882	17.646568	-3.665697	46.299786	33.300301	3.486759	-7.681611	57.394206	40.374885
-0.225000	-160.147433	-5.066637	-73.570646	0.042061	-0.143408	-0.054810	103.725907	19.595842	-7.424653	12.745748	16.110499	-24.760008	-41.558005	28.993362	6.227419	42.487750	28.364043	26.404797	3.787575	41.374553	27.015500	18.316593	-3.649322	45.491234	33.274734	4.369123	-7.702550	56.517181	40.178401
-0.215000	-160.147433	-5.066637	-73.570646	0.035528	-0.137589	-0.059109	104.554960	21.720089	-10.136442	12.741993	18.184799	-24.128720	-41.397184	28.622962	6.075353	42.392706	28.307170	26.193363	3.710190	41.380800	27.076762	18.680381	-3.665267	45.010342	33.364145	5.181538	-7.649329	55.810330	40.030799
-0.205000	-160.147433	-5.066637	-73.570646	0.028394	-0.131684	-0.063455	105.825816	23.847746	-13.079950	13.021824	20.528686	-23.218590	-41.076528	27.841672	5.863899	42.525462	28.395963	25.549969	3.632709	41.604668	27.253517	18.577835	-3.696312	44.920838	33.547784	5.759565	-7.473841	55.361981	39.928682
-0.195000	-160.147433	-5.066637	-73.570646	0.020777	-0.125979	-0.067730	107.508017	25.851220	-16.063545	13.637334	22.956683	-22.030385	-40.541442	26.490930	5.572132	42.825239	28.615335	24.411120	3.550111	41.918889	27.470310	17.887568	-3.717016	45.143328	33.747810	5.937229	-7.160216	55.152636	39.816049
-0.185000	-160.147433	-5.066637	-73.570646	0.012797	-0.120756	-0.071838	109.543843	27.593927	-18.844410	14.622544	25.309866	-20.618473	-39.821263	24.420666	5.192009	43.191841	28.932574	22.768409	3.454975	42.120083	27.609407	16.569003	-3.704223	45.461451	33.841449	5.584726	-6.742865	55.058966	39.596008
-0.175000	-160.147433	-5.066637	-73.570646	0.004559	-0.116253	-0.075729	111.852823	28.970064	-21.166289	15.970828	27.468171	-19.088999	-39.034575	21.543965	4.742084	43.531841	29.321984	20.687646	3.345800	41.998388	27.552948	14.698573	-3.649234	45.588149	33.700089	4.647871	-6.301111	54.899930	39.169392
-0.165000	-160.147433	-5.066637	-73.570646	-0.003839	-0.112647	-0.079396	114.332225	29.938609	-22.807257	17.605602	29.338136	-17.589699	-38.357633	17.909878	4.273267	43.800597	29.786038	18.327124	3.234460	41.430338	27.241050	12.490494	-3.566133	45.280277	33.250899	3.189319	-5.935356	54.511541	38.493220
-0.155000	-160.147433	-5.066637	-73.570646	-0.012270	-0.110026	-0.082844	116.860964	30.540216	-23.633551	19.365830	30.844845	-16.291154	-37.975812	13.765353	3.862042	44.026648	30.365782	15.944516	3.149312	40.468344	26.729492	10.289150	-3.490474	44.468409	32.544378	1.424039	-5.741557	53.831265	37.642938
-0.145000	-160.147433	-5.066637	-73.570646	-0.020530	-0.108373	-0.086049	119.308790	30.890301	-23.646500	21.027402	31.941024	-15.354962	-38.037617	9.564724	3.591610	44.313455	31.137886	13.878032	3.131464	39.387159	26.220371	8.522296	-3.466179	43.347167	31.796628	-0.274274	-5.796077	52.962682	36.850354
